<svg width="1600" height="900" viewBox="0 0 1600 900" fill="none" xmlns="http://www.w3.org/2000/svg">
  <rect width="1600" height="900" fill="#F5E8CF"/>
  <path d="M0 647C169 585 299 561 427 587C573 617 689 705 848 706C983 706 1101 644 1231 616C1367 586 1480 600 1600 646V900H0V647Z" fill="#D7B07B"/>
  <path d="M0 563C105 523 199 517 298 535C410 556 501 619 632 620C777 620 855 542 979 515C1116 485 1341 513 1600 577V900H0V563Z" fill="#E6C68D"/>
  <circle cx="1184" cy="239" r="76" fill="#E6A441"/>
  <circle cx="1204" cy="227" r="18" fill="#F8D79D"/>
  <path d="M305 302C362 214 431 170 513 170C627 170 692 254 706 366C721 490 644 586 522 597C441 604 364 569 313 503C262 437 252 384 305 302Z" fill="#7D4A26"/>
  <path d="M356 333C394 268 445 236 511 236C600 236 647 302 655 375C663 447 613 520 526 528C470 534 419 515 384 477C348 439 332 394 356 333Z" fill="#C37B32"/>
  <path d="M428 366C447 347 471 337 498 337C537 337 566 359 582 395C597 429 593 469 567 498C542 526 503 538 467 530C432 522 406 495 398 460C391 426 400 393 428 366Z" fill="#F7D7A1"/>
  <circle cx="470" cy="420" r="11" fill="#2B2118"/>
  <circle cx="538" cy="420" r="11" fill="#2B2118"/>
  <path d="M487 447C498 439 514 439 525 447C517 468 495 468 487 447Z" fill="#2B2118"/>
  <path d="M390 268L434 222L456 282L390 268Z" fill="#7D4A26"/>
  <path d="M559 222L610 262L544 280L559 222Z" fill="#7D4A26"/>
  <path d="M417 540C454 567 491 580 532 580C575 580 620 565 651 532C683 499 694 451 690 424C723 470 740 518 739 565C736 661 652 738 537 750C420 761 310 693 285 595C270 535 279 478 314 421C311 463 333 502 417 540Z" fill="#8F5427"/>
  <ellipse cx="1002" cy="585" rx="161" ry="121" fill="#6A90A0"/>
  <ellipse cx="1002" cy="585" rx="129" ry="96" fill="#98C5D1"/>
  <path d="M899 502C920 430 970 362 1036 318C1102 274 1170 265 1225 284" stroke="#6F8A59" stroke-width="18" stroke-linecap="round"/>
  <path d="M1117 322C1177 278 1263 255 1340 263" stroke="#6F8A59" stroke-width="18" stroke-linecap="round"/>
  <path d="M822 541C766 523 731 493 718 452C705 410 719 366 752 338" stroke="#6F8A59" stroke-width="18" stroke-linecap="round"/>
  <path d="M754 601C724 648 708 691 706 734" stroke="#6F8A59" stroke-width="18" stroke-linecap="round"/>
  <path d="M1164 566C1174 562 1188 565 1195 575C1204 587 1203 605 1192 615C1181 626 1163 626 1151 617C1138 608 1134 589 1141 577C1146 568 1154 562 1164 566Z" fill="#D78644"/>
  <path d="M1168 575C1172 557 1185 544 1203 541C1220 538 1238 545 1249 559C1260 573 1263 593 1255 609C1247 626 1231 638 1213 639C1188 640 1168 620 1165 596L1168 575Z" fill="#FFF2DB"/>
  <circle cx="1195" cy="585" r="5" fill="#2B2118"/>
  <circle cx="1223" cy="586" r="5" fill="#2B2118"/>
  <path d="M1200 596C1205 604 1213 604 1218 596" stroke="#2B2118" stroke-width="4" stroke-linecap="round"/>
  <path d="M909 585C944 575 971 565 1002 565C1035 565 1061 575 1094 585" stroke="#CBE0E6" stroke-width="12" stroke-linecap="round"/>
  <path d="M979 468C991 448 1009 431 1030 420" stroke="#B6CED5" stroke-width="8" stroke-linecap="round"/>
  <path d="M1403 203L1446 245" stroke="#C07B36" stroke-width="22" stroke-linecap="round"/>
  <path d="M1446 203L1403 245" stroke="#C07B36" stroke-width="22" stroke-linecap="round"/>
</svg>